<svg width="62" height="62" viewBox="0 0 62 62" fill="none" xmlns="http://www.w3.org/2000/svg">
<g id="linkedin">
<path id="bg" d="M0 31C0 48.1208 13.8792 62 31 62C48.1208 62 62 48.1208 62 31C62 13.8792 48.1208 0 31 0C13.8792 0 0 13.8792 0 31Z" fill="#2867B2"/>
<path id="linkedin_2" d="M22.475 46.5H15.8875V25.7688H22.475V46.5ZM19.1813 22.8625C17.05 22.8625 15.5 21.3125 15.5 19.1812C15.5 17.05 17.2438 15.5 19.1813 15.5C21.3125 15.5 22.8625 17.05 22.8625 19.1812C22.8625 21.3125 21.3125 22.8625 19.1813 22.8625ZM46.5 46.5H39.9125V35.2625C39.9125 31.9688 38.5562 31 36.6187 31C34.6812 31 32.7437 32.55 32.7437 35.4562V46.5H26.1562V25.7688H32.3562V28.675C32.9375 27.3188 35.2625 25.1875 38.5562 25.1875C42.2375 25.1875 46.1125 27.3187 46.1125 33.7125V46.5H46.5Z" fill="white"/>
</g>
</svg>
