<svg width="62" height="62" viewBox="0 0 62 62" fill="none" xmlns="http://www.w3.org/2000/svg">
<g id="medium">
<path id="bg" d="M0 31C0 48.1208 13.8792 62 31 62C48.1208 62 62 48.1208 62 31C62 13.8792 48.1208 0 31 0C13.8792 0 0 13.8792 0 31Z" fill="white"/>
<path id="medium_2" d="M19.1812 23.6376C19.1812 23.2501 18.9875 22.8626 18.7937 22.6688L15.8875 19.1813V18.6001H24.8L31.775 33.9063L37.975 18.6001H46.5V19.1813L43.9813 21.5063C43.7875 21.7001 43.5938 21.8938 43.7875 22.2813V39.7188C43.7875 39.9126 43.7875 40.3001 43.9813 40.4938L46.3062 42.8188V43.4001H34.1V42.8188L36.6187 40.3001C36.8125 40.1063 36.8125 39.9126 36.8125 39.5251V25.3813L29.8375 43.0126H29.0625L20.925 25.3813V37.2001C20.925 37.7813 21.1188 38.1688 21.3125 38.5563L24.6062 42.4313V43.0126H15.5V42.4313L18.7937 38.5563C19.1812 38.1688 19.375 37.7813 19.1812 37.2001V23.6376Z" fill="black"/>
</g>
</svg>
